<svg xmlns="http://www.w3.org/2000/svg" width="48" height="48" fill="none" stroke="currentColor" stroke-width="4" viewBox="0 0 48 48"><path fill-rule="evenodd" stroke-linecap="butt" d="M24 6C33.9411 6 42 14.0589 42 24C42 33.9411 33.9411 42 24 42C14.0589 42 6 33.9411 6 24C6 14.0589 14.0589 6 24 6Z" clip-rule="evenodd"/><path fill="currentColor" stroke="none" stroke-linecap="butt" stroke-width="none" d="M30 24C30 27.3137 27.3137 30 24 30C20.6863 30 18 27.3137 18 24C18 20.6863 20.6863 18 24 18C27.3137 18 30 20.6863 30 24Z"/><path stroke-linecap="butt" d="M30 24C30 27.3137 27.3137 30 24 30C20.6863 30 18 27.3137 18 24C18 20.6863 20.6863 18 24 18C27.3137 18 30 20.6863 30 24Z"/></svg>