<svg xmlns="http://www.w3.org/2000/svg" width="48" height="48" fill="none" stroke="currentColor" stroke-width="4" viewBox="0 0 48 48"><path fill="currentColor" fill-rule="evenodd" stroke="none" stroke-linecap="butt" stroke-width="none" d="M24 44C35.0457 44 44 35.0457 44 24C44 12.9543 35.0457 4 24 4C12.9543 4 4 12.9543 4 24C4 35.0457 12.9543 44 24 44ZM34.2073 19.6214C34.5978 19.2308 34.5978 18.5977 34.2073 18.2071L32.793 16.7929C32.4025 16.4024 31.7694 16.4024 31.3788 16.7929L22.0002 26.1716L17.1215 21.2929C16.7309 20.9024 16.0978 20.9024 15.7073 21.2929L14.293 22.7071C13.9025 23.0977 13.9025 23.7308 14.293 24.1213L21.293 31.1213C21.6836 31.5119 22.3167 31.5119 22.7073 31.1213L34.2073 19.6214Z" clip-rule="evenodd"/></svg>