<svg xmlns="http://www.w3.org/2000/svg" width="128" height="128" fill="none" viewBox="0 0 128 128"><g clip-path="url(#clip0)"><rect width="113" height="37.87" x="25" y="28" fill="#E8F3FF" rx="1"/><path fill="#4080FF" d="M36 51.87L40.466 42H41.936L46.402 51.87H44.582L43.602 49.588H38.786L37.82 51.87H36ZM41.18 43.946L39.402 48.16H42.986L41.208 43.946H41.18Z"/><path fill="#4080FF" d="M47.314 51.87V45.024H49.022V46.228C49.358 45.416 50.0766 44.968 51.178 44.884L51.71 44.842L51.822 46.326L50.814 46.424C49.666 46.536 49.092 47.124 49.092 48.188V51.87H47.314Z"/><rect width="113" height="37.87" x="25" y="28" stroke="#4080FF" stroke-width="2" rx="1"/><path stroke="#4080FF" d="M56 39V55"/><path fill="#E8F3FF" d="M24 71H127V125C127 126.105 126.105 127 125 127H24V71Z"/><rect width="36" height="4" x="36" y="83" fill="#BEDAFF" rx="2"/><rect width="69" height="4" x="36" y="91" fill="#BEDAFF" rx="2"/><rect width="36" height="4" x="36" y="107" fill="#BEDAFF" rx="2"/><rect width="69" height="4" x="36" y="115" fill="#BEDAFF" rx="2"/></g><defs><clipPath id="clip0"><rect width="128" height="128" fill="#fff"/></clipPath></defs></svg>