<svg xmlns="http://www.w3.org/2000/svg" width="128" height="128" fill="none" viewBox="0 0 128 128"><path fill="#3469E1" d="M12 54C12 52.8954 12.8954 52 14 52H42C43.1046 52 44 52.8954 44 54V76H12V54Z"/><path fill="#303857" stroke="#4C87FF" stroke-width="2" d="M49 54C49 53.4477 49.4477 53 50 53H78C78.5523 53 79 53.4477 79 54V75H49V54Z"/><path fill="#303857" stroke="#4C87FF" stroke-width="2" d="M85 54C85 53.4477 85.4477 53 86 53H114C114.552 53 115 53.4477 115 54V75H85V54Z"/><rect width="112" height="2" x="8" y="74" fill="#4C87FF"/></svg>