<svg xmlns="http://www.w3.org/2000/svg" width="128" height="128" fill="none" viewBox="0 0 128 128"><rect width="5" height="5" x="47.5" y="30.5" fill="#3469E1" rx="2.5"/><rect width="17" height="2" x="57" y="30" fill="#3469E1" rx="1"/><rect width="32" height="2" x="57" y="34" fill="#1D1D20" rx="1"/><rect width="5" height="5" x="47.5" y="30.5" stroke="#3469E1" rx="2.5"/><path stroke="#3469E1" stroke-width="2" d="M50 40V50"/><path stroke="#3469E1" stroke-width="2" d="M50 64V74"/><path stroke="#3469E1" stroke-width="2" d="M50 88V98"/><rect width="5" height="5" x="47.5" y="54.5" fill="#3469E1" rx="2.5"/><rect width="17" height="2" x="57" y="54" fill="#3469E1" rx="1"/><rect width="32" height="2" x="57" y="58" fill="#1D1D20" rx="1"/><rect width="5" height="5" x="47.5" y="54.5" stroke="#3469E1" rx="2.5"/><rect width="5" height="5" x="47.5" y="78.5" fill="#3469E1" rx="2.5"/><rect width="17" height="2" x="57" y="77" fill="#303857" rx="1"/><rect width="32" height="2" x="57" y="81" fill="#1D1D20" rx="1"/><rect width="5" height="5" x="47.5" y="78.5" stroke="#3469E1" rx="2.5"/></svg>